<?xml version="1.0" encoding="UTF-8"?>
<svg xmlns="http://www.w3.org/2000/svg" width="1200" height="320" viewBox="0 0 1200 320" role="img" aria-labelledby="title desc">
  <title id="title">OCRYON</title>
  <desc id="desc">OCRYON — local-first intelligent document recognition for Windows by SWIR</desc>
  <defs>
    <linearGradient id="bg" x1="0" y1="0" x2="1" y2="1"><stop stop-color="#02050A"/><stop offset=".55" stop-color="#07111C"/><stop offset="1" stop-color="#03050A"/></linearGradient>
    <linearGradient id="beam" x1="0" y1="0" x2="1" y2="1"><stop stop-color="#35F2FF"/><stop offset=".48" stop-color="#7C5CFF"/><stop offset="1" stop-color="#FF3DBA"/></linearGradient>
    <filter id="glow" x="-50%" y="-50%" width="200%" height="200%"><feGaussianBlur stdDeviation="8" result="b"/><feMerge><feMergeNode in="b"/><feMergeNode in="SourceGraphic"/></feMerge></filter>
    <pattern id="grid" width="32" height="32" patternUnits="userSpaceOnUse"><path d="M32 0H0V32" fill="none" stroke="#173049" stroke-width="1" opacity=".28"/></pattern>
  </defs>
  <rect width="1200" height="320" rx="28" fill="url(#bg)"/>
  <rect width="1200" height="320" rx="28" fill="url(#grid)"/>
  <g transform="translate(102 48)" filter="url(#glow)">
    <rect x="0" y="0" width="228" height="228" rx="48" fill="#08111E" stroke="#22324A" stroke-width="5"/>
    <path d="M42 82V42h40M146 42h40v40M186 146v40h-40M82 186H42v-40" fill="none" stroke="url(#beam)" stroke-width="10" stroke-linecap="round"/>
    <path d="M38 114c26-43 51-62 76-62s50 19 76 62c-26 43-51 62-76 62s-50-19-76-62Z" fill="#0B1220" stroke="url(#beam)" stroke-width="8"/>
    <circle cx="114" cy="114" r="42" fill="url(#beam)"/><circle cx="114" cy="114" r="21" fill="#050810"/>
    <path d="M54 196H174" stroke="url(#beam)" stroke-width="7" stroke-linecap="round"/>
  </g>
  <text x="430" y="78" fill="#62E5FF" font-family="Segoe UI,Arial,sans-serif" font-size="18" font-weight="700" letter-spacing="4">SWIR PROJECT</text>
  <text x="430" y="154" fill="#F4FAFF" font-family="Segoe UI,Arial,sans-serif" font-size="64" font-weight="800">OCRYON</text>
  <text x="432" y="200" fill="#BBD2DF" font-family="Segoe UI,Arial,sans-serif" font-size="24">Local-first intelligent document recognition for Windows</text>
  <text x="432" y="242" fill="#62E5FF" font-family="Segoe UI,Arial,sans-serif" font-size="17" letter-spacing="1.4">PYTHON • PYSIDE6 • TESSERACT • PDF / IMAGE OCR</text>
  <path d="M430 266H1080" stroke="url(#beam)" stroke-width="3" stroke-linecap="round"/>
</svg>